<svg fill="none" height="24" viewBox="0 0 24 24" width="24" xmlns="http://www.w3.org/2000/svg"><g stroke="#292929" stroke-linejoin="round"><path d="m4 11v8c0 1.1046.89543 2 2 2h12c1.1046 0 2-.8954 2-2v-8" stroke-linecap="round"/><path d="m6 4.5c0-1.38071 1.11929-2.5 2.5-2.5 1.933 0 3.5 1.567 3.5 3.5v1.5h-3.5c-1.38071 0-2.5-1.11929-2.5-2.5z"/><path d="m18 4.5c0-1.38071-1.1193-2.5-2.5-2.5-1.933 0-3.5 1.567-3.5 3.5v1.5h3.5c1.3807 0 2.5-1.11929 2.5-2.5z"/><g stroke-linecap="round"><path d="m3 7h18v4h-18z"/><path d="m12 11v10"/></g></g></svg>